<?xml version="1.0" standalone="no"?><!DOCTYPE svg PUBLIC "-//W3C//DTD SVG 1.1//EN" "http://www.w3.org/Graphics/SVG/1.1/DTD/svg11.dtd"><svg t="1569325345846" class="icon" viewBox="0 0 1024 1024" version="1.1" xmlns="http://www.w3.org/2000/svg" p-id="1838" xmlns:xlink="http://www.w3.org/1999/xlink" width="200" height="200"><defs><style type="text/css"></style></defs><path d="M648.251 850.277c-13.64 11.238-33.807 9.29-45.045-4.35-11.237-13.64-9.29-33.808 4.351-45.046C758.305 676.69 832 566.033 832 471.074c0-177.728-143.304-321.74-320-321.74s-320 144.012-320 321.74c0 115.225 108.418 253.046 329.164 409.484 14.42 10.219 17.825 30.192 7.606 44.611-10.218 14.42-30.191 17.825-44.61 7.606C248.022 765.431 128 612.857 128 471.074c0-213.004 171.887-385.74 384-385.74s384 172.736 384 385.74c0 118.374-83.702 244.055-247.749 379.203zM512 618.667c-82.475 0-149.333-66.86-149.333-149.334S429.525 320 512 320s149.333 66.859 149.333 149.333c0 82.475-66.858 149.334-149.333 149.334z m0-64c47.128 0 85.333-38.205 85.333-85.334C597.333 422.205 559.128 384 512 384s-85.333 38.205-85.333 85.333c0 47.129 38.205 85.334 85.333 85.334z" fill="#C0C0C0" p-id="1839"></path></svg>